<svg width="60" height="61" viewBox="0 0 60 61" fill="none" xmlns="http://www.w3.org/2000/svg">
<rect y="0.202148" width="60" height="60" rx="8" fill="#3793D8"/>
<path d="M23.6738 42.3525V41.3486C23.6738 40.8478 23.2664 40.4404 22.7656 40.4404H19.8203C19.3195 40.4404 18.9121 40.8478 18.9121 41.3486V42.3525C18.9121 42.8533 19.3195 43.2607 19.8203 43.2607H22.7656C23.2664 43.2607 23.6738 42.8533 23.6738 42.3525ZM19.791 42.3525V41.3486C19.791 41.3325 19.8041 41.3193 19.8203 41.3193H22.7656C22.7818 41.3193 22.7949 41.3325 22.7949 41.3486V42.3525C22.7949 42.3687 22.7818 42.3818 22.7656 42.3818H19.8203C19.8041 42.3818 19.791 42.3687 19.791 42.3525Z" fill="white"/>
<path d="M35.8536 35.5869C35.076 35.5869 34.4434 36.2195 34.4434 36.9971C34.4434 37.7747 35.076 38.4072 35.8536 38.4072C36.6311 38.4072 37.2637 37.7746 37.2637 36.9971C37.2637 36.2196 36.6311 35.5869 35.8536 35.5869ZM35.8536 37.5283C35.5606 37.5283 35.3223 37.29 35.3223 36.9971C35.3223 36.7041 35.5606 36.4658 35.8536 36.4658C36.1465 36.4658 36.3848 36.7041 36.3848 36.9971C36.3848 37.29 36.1465 37.5283 35.8536 37.5283Z" fill="white"/>
<path d="M40.707 31.7041H40.1758V29.2314V25.3486C40.1758 24.5711 39.5433 23.9385 38.7657 23.9385H38.2345V18.0684C38.2345 17.5584 37.8195 17.1436 37.3096 17.1436H28.5733C28.5578 17.1436 28.5427 17.1452 28.5274 17.1459V16.5791C28.5274 15.8198 27.9097 15.2021 27.1504 15.2021H19.3183C18.5591 15.2021 17.9414 15.8198 17.9414 16.5791V18.1601C17.9414 18.4028 18.1381 18.5996 18.3808 18.5996C18.6235 18.5996 18.8203 18.4028 18.8203 18.1601V16.5791C18.8203 16.3045 19.0437 16.0811 19.3183 16.0811H19.8828V27.8213H18.8203V19.9179C18.8203 19.6753 18.6235 19.4785 18.3808 19.4785C18.1381 19.4785 17.9414 19.6753 17.9414 19.9179V23.9792C17.4619 24.068 17.0223 24.3014 16.6743 24.6592C16.2411 25.1044 16.0041 25.6863 16.0007 26.3051C16.0005 26.3098 16 26.3145 16 26.3193V42.8212C16 44.1341 17.068 45.2021 18.3809 45.2021H20.414C20.6567 45.2021 20.8535 45.0054 20.8535 44.7627C20.8535 44.52 20.6567 44.3232 20.414 44.3232H18.3809C17.5527 44.3232 16.8789 43.6495 16.8789 42.8212V28.1465C17.2807 28.4755 17.7899 28.6801 18.3415 28.6982C18.3545 28.6993 38.7656 28.7002 38.7656 28.7002C39.0585 28.7002 39.2968 28.9385 39.2968 29.2314V33.6454H33.9121C33.1345 33.6454 32.5019 34.278 32.5019 35.0556V38.9385C32.5019 39.7161 33.1345 40.3486 33.9121 40.3486H39.2968V43.792C39.2968 44.0849 39.0585 44.3232 38.7656 44.3232H22.1719C21.9292 44.3232 21.7324 44.52 21.7324 44.7627C21.7324 45.0054 21.9292 45.2021 22.1719 45.2021H38.7657C39.5433 45.2021 40.1758 44.5696 40.1758 43.792V40.3486H40.707C42.0198 40.3486 43.0878 39.2805 43.0878 37.9678V34.0849C43.0879 32.7721 42.0198 31.7041 40.707 31.7041ZM16.8795 26.3619C16.8682 25.9522 17.0191 25.5652 17.3042 25.2721C17.4839 25.0874 17.7022 24.9551 17.9414 24.8824V27.7451C17.3416 27.5507 16.8971 27.0043 16.8795 26.3619ZM28.5732 18.0224H37.3095C37.3349 18.0224 37.3555 18.0431 37.3555 18.0683V27.8212H36.2929V20.7712C36.2929 20.4494 36.0737 20.1758 35.76 20.106C35.5355 20.0559 35.3212 19.8415 35.2721 19.6179C35.2042 19.309 34.9244 19.0849 34.6068 19.0849H31.276C30.9542 19.0849 30.6807 19.3041 30.6108 19.6178C30.5608 19.8424 30.3464 20.0566 30.1228 20.1058C29.8139 20.1737 29.5897 20.4534 29.5897 20.7711V27.8212H28.5273V18.0684C28.5273 18.0431 28.5479 18.0224 28.5732 18.0224ZM35.414 27.8213H30.4687V20.9198C30.9057 20.768 31.2722 20.4014 31.4246 19.9639H34.4581C34.61 20.4008 34.9765 20.7674 35.414 20.9198V27.8213ZM27.6484 16.5791V18.0684V27.8213H22.7031V16.0811H27.1504C27.425 16.0811 27.6484 16.3045 27.6484 16.5791ZM20.7617 27.8213V16.0811H21.8242V27.8213H20.7617ZM38.7657 27.8213H38.2344V24.8174H38.7657C39.0586 24.8174 39.2969 25.0557 39.2969 25.3486V27.9255C39.1328 27.8585 38.9535 27.8213 38.7657 27.8213ZM42.209 37.9678C42.209 38.7959 41.5352 39.4697 40.707 39.4697H33.9121C33.6192 39.4697 33.3808 39.2314 33.3808 38.9385V35.0556C33.3808 34.7627 33.6191 34.5244 33.9121 34.5244H40.2217C40.4644 34.5244 40.6611 34.3276 40.6611 34.0849C40.6611 33.8422 40.4644 33.6455 40.2217 33.6455H40.1758V32.583H40.707C41.5352 32.583 42.2089 33.2568 42.2089 34.0849V37.9678H42.209Z" fill="white"/>
<path d="M32.9414 23.9385C32.1638 23.9385 31.5312 24.5711 31.5312 25.3486C31.5312 26.1261 32.1638 26.7588 32.9414 26.7588C33.719 26.7588 34.3515 26.1262 34.3515 25.3486C34.3516 24.5711 33.719 23.9385 32.9414 23.9385ZM32.9414 25.8799C32.6484 25.8799 32.4101 25.6416 32.4101 25.3486C32.4101 25.0557 32.6484 24.8174 32.9414 24.8174C33.2343 24.8174 33.4726 25.0557 33.4726 25.3486C33.4727 25.6416 33.2343 25.8799 32.9414 25.8799Z" fill="white"/>
<path d="M32.9414 22.876C33.1841 22.876 33.3808 22.6792 33.3808 22.4365V21.4658C33.3808 21.2231 33.1841 21.0264 32.9414 21.0264C32.6987 21.0264 32.5019 21.2231 32.5019 21.4658V22.4365C32.5019 22.6792 32.6987 22.876 32.9414 22.876Z" fill="white"/>
<path d="M24.6738 20.9346H25.6777C26.1785 20.9346 26.5859 20.5272 26.5859 20.0264V18.0518C26.5859 17.551 26.1785 17.1436 25.6777 17.1436H24.6738C24.173 17.1436 23.7656 17.551 23.7656 18.0518V20.0264C23.7656 20.5271 24.173 20.9346 24.6738 20.9346ZM24.6445 18.0517C24.6445 18.0355 24.6576 18.0224 24.6738 18.0224H25.6777C25.6939 18.0224 25.707 18.0355 25.707 18.0517V20.0263C25.707 20.0425 25.6939 20.0556 25.6777 20.0556H24.6738C24.6576 20.0556 24.6445 20.0425 24.6445 20.0263V18.0517Z" fill="white"/>
</svg>
