<svg width="60" height="61" viewBox="0 0 60 61" fill="none" xmlns="http://www.w3.org/2000/svg">
<rect y="0.202148" width="60" height="60" rx="8" fill="#0600AE"/>
<path d="M42.5 18.2021H40V17.2021C40 16.6717 39.7893 16.163 39.4142 15.7879C39.0391 15.4129 38.5304 15.2021 38 15.2021C37.4696 15.2021 36.9609 15.4129 36.5858 15.7879C36.2107 16.163 36 16.6717 36 17.2021V18.2021H32V17.2021C32 16.6717 31.7893 16.163 31.4142 15.7879C31.0391 15.4129 30.5304 15.2021 30 15.2021C29.4696 15.2021 28.9609 15.4129 28.5858 15.7879C28.2107 16.163 28 16.6717 28 17.2021V18.2021H24V17.2021C24 16.6717 23.7893 16.163 23.4142 15.7879C23.0391 15.4129 22.5304 15.2021 22 15.2021C21.4696 15.2021 20.9609 15.4129 20.5858 15.7879C20.2107 16.163 20 16.6717 20 17.2021V18.2021H17.5C16.837 18.2021 16.2011 18.4655 15.7322 18.9344C15.2634 19.4032 15 20.0391 15 20.7021V40.7021C15 41.3652 15.2634 42.0011 15.7322 42.4699C16.2011 42.9388 16.837 43.2021 17.5 43.2021H31.5C31.6326 43.2021 31.7598 43.1495 31.8536 43.0557C31.9473 42.9619 32 42.8348 32 42.7021C32 42.5695 31.9473 42.4424 31.8536 42.3486C31.7598 42.2548 31.6326 42.2021 31.5 42.2021H17.5C17.1025 42.201 16.7217 42.0425 16.4407 41.7615C16.1596 41.4804 16.0012 41.0996 16 40.7021V25.2021H44V33.7021C44 33.8348 44.0527 33.9619 44.1464 34.0557C44.2402 34.1495 44.3674 34.2021 44.5 34.2021C44.6326 34.2021 44.7598 34.1495 44.8536 34.0557C44.9473 33.9619 45 33.8348 45 33.7021V20.7021C45 20.0391 44.7366 19.4032 44.2678 18.9344C43.7989 18.4655 43.163 18.2021 42.5 18.2021ZM37 17.2021C37 16.9369 37.1054 16.6826 37.2929 16.495C37.4804 16.3075 37.7348 16.2021 38 16.2021C38.2652 16.2021 38.5196 16.3075 38.7071 16.495C38.8946 16.6826 39 16.9369 39 17.2021V20.2021C39 20.4674 38.8946 20.7217 38.7071 20.9093C38.5196 21.0968 38.2652 21.2021 38 21.2021C37.7348 21.2021 37.4804 21.0968 37.2929 20.9093C37.1054 20.7217 37 20.4674 37 20.2021V17.2021ZM29 17.2021C29 16.9369 29.1054 16.6826 29.2929 16.495C29.4804 16.3075 29.7348 16.2021 30 16.2021C30.2652 16.2021 30.5196 16.3075 30.7071 16.495C30.8946 16.6826 31 16.9369 31 17.2021V20.2021C31 20.4674 30.8946 20.7217 30.7071 20.9093C30.5196 21.0968 30.2652 21.2021 30 21.2021C29.7348 21.2021 29.4804 21.0968 29.2929 20.9093C29.1054 20.7217 29 20.4674 29 20.2021V17.2021ZM21 17.2021C21 16.9369 21.1054 16.6826 21.2929 16.495C21.4804 16.3075 21.7348 16.2021 22 16.2021C22.2652 16.2021 22.5196 16.3075 22.7071 16.495C22.8946 16.6826 23 16.9369 23 17.2021V20.2021C23 20.4674 22.8946 20.7217 22.7071 20.9093C22.5196 21.0968 22.2652 21.2021 22 21.2021C21.7348 21.2021 21.4804 21.0968 21.2929 20.9093C21.1054 20.7217 21 20.4674 21 20.2021V17.2021ZM44 24.2021H16V20.7021C16.0012 20.3047 16.1596 19.9238 16.4407 19.6428C16.7217 19.3618 17.1025 19.2033 17.5 19.2021H20V20.2021C20 20.7326 20.2107 21.2413 20.5858 21.6164C20.9609 21.9914 21.4696 22.2021 22 22.2021C22.5304 22.2021 23.0391 21.9914 23.4142 21.6164C23.7893 21.2413 24 20.7326 24 20.2021V19.2021H28V20.2021C28 20.7326 28.2107 21.2413 28.5858 21.6164C28.9609 21.9914 29.4696 22.2021 30 22.2021C30.5304 22.2021 31.0391 21.9914 31.4142 21.6164C31.7893 21.2413 32 20.7326 32 20.2021V19.2021H36V20.2021C36 20.7326 36.2107 21.2413 36.5858 21.6164C36.9609 21.9914 37.4696 22.2021 38 22.2021C38.5304 22.2021 39.0391 21.9914 39.4142 21.6164C39.7893 21.2413 40 20.7326 40 20.2021V19.2021H42.5C42.8975 19.2033 43.2783 19.3618 43.5593 19.6428C43.8404 19.9238 43.9988 20.3047 44 20.7021V24.2021Z" fill="white"/>
<path d="M29 28.7021C29 28.4369 28.8946 28.1826 28.7071 27.995C28.5196 27.8075 28.2652 27.7021 28 27.7021H26C25.7348 27.7021 25.4804 27.8075 25.2929 27.995C25.1054 28.1826 25 28.4369 25 28.7021V30.2021C25 30.4674 25.1054 30.7217 25.2929 30.9093C25.4804 31.0968 25.7348 31.2021 26 31.2021H28C28.2652 31.2021 28.5196 31.0968 28.7071 30.9093C28.8946 30.7217 29 30.4674 29 30.2021V28.7021ZM26 30.2021V28.7021H28V30.2021H26Z" fill="white"/>
<path d="M23 28.7021C23 28.4369 22.8946 28.1826 22.7071 27.995C22.5196 27.8075 22.2652 27.7021 22 27.7021H20C19.7348 27.7021 19.4804 27.8075 19.2929 27.995C19.1054 28.1826 19 28.4369 19 28.7021V30.2021C19 30.4674 19.1054 30.7217 19.2929 30.9093C19.4804 31.0968 19.7348 31.2021 20 31.2021H22C22.2652 31.2021 22.5196 31.0968 22.7071 30.9093C22.8946 30.7217 23 30.4674 23 30.2021V28.7021ZM20 30.2021V28.7021H22V30.2021H20Z" fill="white"/>
<path d="M40 31.2021C40.2652 31.2021 40.5196 31.0968 40.7071 30.9093C40.8946 30.7217 41 30.4674 41 30.2021V28.7021C41 28.4369 40.8946 28.1826 40.7071 27.995C40.5196 27.8075 40.2652 27.7021 40 27.7021H38C37.7348 27.7021 37.4804 27.8075 37.2929 27.995C37.1054 28.1826 37 28.4369 37 28.7021V30.2021C37 30.4674 37.1054 30.7217 37.2929 30.9093C37.4804 31.0968 37.7348 31.2021 38 31.2021H40ZM38 28.7021H40V30.2021H38V28.7021Z" fill="white"/>
<path d="M29 33.2021C29 32.9369 28.8946 32.6826 28.7071 32.495C28.5196 32.3075 28.2652 32.2021 28 32.2021H26C25.7348 32.2021 25.4804 32.3075 25.2929 32.495C25.1054 32.6826 25 32.9369 25 33.2021V34.7021C25 34.9674 25.1054 35.2217 25.2929 35.4093C25.4804 35.5968 25.7348 35.7021 26 35.7021H28C28.2652 35.7021 28.5196 35.5968 28.7071 35.4093C28.8946 35.2217 29 34.9674 29 34.7021V33.2021ZM26 34.7021V33.2021H28V34.7021H26Z" fill="white"/>
<path d="M23 33.2021C23 32.9369 22.8946 32.6826 22.7071 32.495C22.5196 32.3075 22.2652 32.2021 22 32.2021H20C19.7348 32.2021 19.4804 32.3075 19.2929 32.495C19.1054 32.6826 19 32.9369 19 33.2021V34.7021C19 34.9674 19.1054 35.2217 19.2929 35.4093C19.4804 35.5968 19.7348 35.7021 20 35.7021H22C22.2652 35.7021 22.5196 35.5968 22.7071 35.4093C22.8946 35.2217 23 34.9674 23 34.7021V33.2021ZM20 34.7021V33.2021H22V34.7021H20Z" fill="white"/>
<path d="M28 36.7021H26C25.7348 36.7021 25.4804 36.8075 25.2929 36.995C25.1054 37.1826 25 37.4369 25 37.7021V39.2021C25 39.4674 25.1054 39.7217 25.2929 39.9093C25.4804 40.0968 25.7348 40.2021 26 40.2021H28C28.2652 40.2021 28.5196 40.0968 28.7071 39.9093C28.8946 39.7217 29 39.4674 29 39.2021V37.7021C29 37.4369 28.8946 37.1826 28.7071 36.995C28.5196 36.8075 28.2652 36.7021 28 36.7021ZM26 39.2021V37.7021H28V39.2021H26Z" fill="white"/>
<path d="M32 31.2021H34C34.2652 31.2021 34.5196 31.0968 34.7071 30.9093C34.8946 30.7217 35 30.4674 35 30.2021V28.7021C35 28.4369 34.8946 28.1826 34.7071 27.995C34.5196 27.8075 34.2652 27.7021 34 27.7021H32C31.7348 27.7021 31.4804 27.8075 31.2929 27.995C31.1054 28.1826 31 28.4369 31 28.7021V30.2021C31 30.4674 31.1054 30.7217 31.2929 30.9093C31.4804 31.0968 31.7348 31.2021 32 31.2021ZM32 28.7021H34V30.2021H32V28.7021Z" fill="white"/>
<path d="M31 34.7021C31 34.9674 31.1054 35.2217 31.2929 35.4093C31.4804 35.5968 31.7348 35.7021 32 35.7021C32.1326 35.7021 32.2598 35.6495 32.3536 35.5557C32.4473 35.4619 32.5 35.3348 32.5 35.2021C32.5 35.0695 32.4473 34.9424 32.3536 34.8486C32.2598 34.7548 32.1326 34.7021 32 34.7021V33.2021H34C34.1326 33.2021 34.2598 33.1495 34.3536 33.0557C34.4473 32.9619 34.5 32.8348 34.5 32.7021C34.5 32.5695 34.4473 32.4424 34.3536 32.3486C34.2598 32.2548 34.1326 32.2021 34 32.2021H32C31.7348 32.2021 31.4804 32.3075 31.2929 32.495C31.1054 32.6826 31 32.9369 31 33.2021V34.7021Z" fill="white"/>
<path d="M22 36.7021H20C19.7348 36.7021 19.4804 36.8075 19.2929 36.995C19.1054 37.1826 19 37.4369 19 37.7021V39.2021C19 39.4674 19.1054 39.7217 19.2929 39.9093C19.4804 40.0968 19.7348 40.2021 20 40.2021H22C22.2652 40.2021 22.5196 40.0968 22.7071 39.9093C22.8946 39.7217 23 39.4674 23 39.2021V37.7021C23 37.4369 22.8946 37.1826 22.7071 36.995C22.5196 36.8075 22.2652 36.7021 22 36.7021V36.7021ZM20 39.2021V37.7021H22V39.2021H20Z" fill="white"/>
<path d="M38.5 32.2021C37.2144 32.2021 35.9577 32.5834 34.8888 33.2976C33.8199 34.0118 32.9867 35.027 32.4948 36.2147C32.0028 37.4024 31.8741 38.7094 32.1249 39.9702C32.3757 41.2311 32.9948 42.3893 33.9038 43.2983C34.8128 44.2074 35.971 44.8264 37.2319 45.0773C38.4928 45.3281 39.7997 45.1993 40.9874 44.7074C42.1752 44.2154 43.1903 43.3823 43.9045 42.3134C44.6188 41.2444 45 39.9877 45 38.7021C44.998 36.9789 44.3126 35.3267 43.094 34.1081C41.8754 32.8896 40.2233 32.2041 38.5 32.2021V32.2021ZM38.5 44.2021C37.4122 44.2021 36.3488 43.8796 35.4444 43.2752C34.5399 42.6709 33.8349 41.8119 33.4187 40.8069C33.0024 39.8019 32.8935 38.696 33.1057 37.6292C33.3179 36.5623 33.8417 35.5822 34.6109 34.8131C35.3801 34.0439 36.3601 33.52 37.427 33.3078C38.4939 33.0956 39.5998 33.2045 40.6048 33.6208C41.6097 34.0371 42.4687 34.742 43.0731 35.6465C43.6774 36.551 44 37.6144 44 38.7021C43.9983 40.1603 43.4183 41.5583 42.3872 42.5893C41.3561 43.6204 39.9582 44.2004 38.5 44.2021Z" fill="white"/>
<path d="M41.389 36.6062L37.5 40.4952L35.7325 38.7272C35.6382 38.6361 35.5119 38.5857 35.3808 38.5868C35.2497 38.588 35.1243 38.6406 35.0316 38.7333C34.9389 38.826 34.8863 38.9514 34.8852 39.0825C34.884 39.2136 34.9344 39.3399 35.0255 39.4342L37.1465 41.5557C37.2403 41.6494 37.3674 41.7021 37.5 41.7021C37.6326 41.7021 37.7597 41.6494 37.8535 41.5557L42.096 37.3132C42.1871 37.2189 42.2375 37.0926 42.2363 36.9615C42.2352 36.8304 42.1826 36.705 42.0899 36.6123C41.9972 36.5196 41.8718 36.467 41.7407 36.4658C41.6096 36.4647 41.4833 36.5151 41.389 36.6062Z" fill="white"/>
</svg>
