<svg width="541" height="480" viewBox="0 0 541 480" fill="none" xmlns="http://www.w3.org/2000/svg">
<path opacity="0.5" d="M213.376 353.329C132.296 301.493 -1.38729 283.276 11.3089 188C26.4668 74.2504 145.582 6.38672 260.385 0.557642C372.616 -5.14082 477.012 58.0801 518.754 162.234C561.634 269.228 544.998 405.46 447.187 466.667C366.028 517.453 294.038 404.899 213.376 353.329Z" fill="#F2F2F2"/>
<path d="M431.97 102.138L486.506 383.757C487.614 389.484 483.223 394.802 477.38 394.802H448.619L431.97 102.138Z" fill="#3793D8"/>
<path d="M431.317 101L467.463 377.508C468.66 386.676 461.514 394.806 452.259 394.806H399.229L429.126 99.999L431.317 101Z" fill="#3662C1"/>
<path d="M431.317 100.999L447.499 375.743C448.108 386.087 439.875 394.805 429.503 394.805H350.414L431.317 100.999Z" fill="#6D89CF"/>
<path d="M431.922 103.241L424.054 375.745C424.662 386.088 416.429 394.806 406.058 394.806H326.969L431.922 103.241Z" fill="#3A49CD"/>
<path d="M53.2682 394.806H365.103C372.89 394.806 379.561 389.249 380.965 381.597L428.416 122.404C430.57 110.638 421.522 99.7959 409.543 99.7959H101.376C93.5898 99.7959 86.9148 105.353 85.5149 113.005L37.4026 375.805C35.5969 385.695 43.2011 394.806 53.2682 394.806Z" fill="white"/>
<path d="M422.244 156.069H77.4197L86.2614 107.132C87.0284 102.889 90.7289 99.8003 95.0464 99.8003H429.049C430.875 99.8003 432.254 101.454 431.926 103.245L422.244 156.069Z" fill="#3793D8"/>
<path d="M414.181 85.0708C422.426 85.0708 429.13 91.7665 429.13 99.9982H426.257C426.257 93.3471 420.84 87.9323 414.177 87.9323C407.514 87.9323 402.097 93.3431 402.097 99.9982C402.097 101.336 402.316 102.616 402.718 103.816C403.903 107.363 406.695 110.18 410.229 111.399C411.26 111.756 412.355 111.983 413.491 112.044V114.913C412.164 114.853 410.886 114.622 409.673 114.237C404.824 112.705 401.034 108.757 399.728 103.816C399.403 102.596 399.233 101.315 399.233 99.9982C399.228 91.7665 405.936 85.0708 414.181 85.0708Z" fill="#3662C1"/>
<path d="M409.555 113.377C409.555 113.677 409.596 113.965 409.673 114.24C410.05 115.61 411.304 116.611 412.793 116.611C414.579 116.611 416.031 115.164 416.031 113.377C416.031 111.59 414.583 110.143 412.793 110.143C411.751 110.143 410.825 110.637 410.229 111.403C409.807 111.946 409.555 112.631 409.555 113.377Z" fill="#3662C1"/>
<path d="M360.579 85.0708C368.824 85.0708 375.528 91.7665 375.528 99.9982H372.659C372.659 93.3471 367.238 87.9323 360.579 87.9323C353.92 87.9323 348.499 93.3431 348.499 99.9982C348.499 101.336 348.718 102.616 349.12 103.816C350.305 107.363 353.097 110.18 356.627 111.399C357.657 111.756 358.753 111.983 359.893 112.044V114.913C358.566 114.853 357.288 114.622 356.075 114.237C351.222 112.705 347.436 108.757 346.125 103.816C345.801 102.596 345.63 101.315 345.63 99.9982C345.63 91.7665 352.338 85.0708 360.579 85.0708Z" fill="#3662C1"/>
<path d="M355.961 113.376C355.961 113.676 356.002 113.964 356.079 114.24C356.456 115.61 357.706 116.611 359.199 116.611C360.985 116.611 362.437 115.164 362.437 113.376C362.437 111.589 360.989 110.142 359.199 110.142C358.152 110.142 357.227 110.637 356.631 111.403C356.209 111.946 355.961 112.631 355.961 113.376Z" fill="#3662C1"/>
<path d="M306.981 85.0708C315.226 85.0708 321.929 91.7665 321.929 99.9982H319.06C319.06 93.3471 313.643 87.9323 306.981 87.9323C300.318 87.9323 294.901 93.3431 294.901 99.9982C294.901 101.336 295.12 102.616 295.522 103.816C296.706 107.363 299.498 110.18 303.028 111.399C304.059 111.756 305.155 111.983 306.295 112.044V114.913C304.972 114.853 303.69 114.622 302.476 114.237C297.623 112.701 293.838 108.757 292.531 103.816C292.206 102.596 292.036 101.315 292.036 99.9982C292.036 91.7665 298.739 85.0708 306.981 85.0708Z" fill="#3662C1"/>
<path d="M302.359 113.376C302.359 113.676 302.399 113.964 302.476 114.24C302.854 115.61 304.108 116.611 305.597 116.611C307.382 116.611 308.835 115.164 308.835 113.376C308.835 111.589 307.386 110.142 305.597 110.142C304.554 110.142 303.629 110.637 303.028 111.403C302.61 111.946 302.359 112.631 302.359 113.376Z" fill="#3662C1"/>
<path d="M253.382 85.0708C261.628 85.0708 268.331 91.7665 268.331 99.9982H265.462C265.462 93.3471 260.045 87.9323 253.382 87.9323C246.724 87.9323 241.302 93.3431 241.302 99.9982C241.302 101.336 241.522 102.616 241.923 103.816C243.108 107.363 245.9 110.18 249.434 111.399C250.465 111.756 251.56 111.983 252.697 112.044V114.913C251.374 114.853 250.091 114.622 248.878 114.237C244.025 112.701 240.239 108.757 238.933 103.816C238.608 102.596 238.438 101.315 238.438 99.9982C238.434 91.7665 245.141 85.0708 253.382 85.0708Z" fill="#3662C1"/>
<path d="M248.761 113.376C248.761 113.676 248.801 113.964 248.878 114.24C249.256 115.61 250.51 116.611 251.999 116.611C253.788 116.611 255.237 115.164 255.237 113.376C255.237 111.589 253.788 110.142 251.999 110.142C250.956 110.142 250.031 110.637 249.434 111.403C249.008 111.946 248.761 112.631 248.761 113.376Z" fill="#3662C1"/>
<path d="M199.784 85.0708C208.029 85.0708 214.733 91.7665 214.733 99.9982H211.864C211.864 93.3471 206.443 87.9323 199.784 87.9323C193.125 87.9323 187.704 93.3431 187.704 99.9982C187.704 101.336 187.923 102.616 188.325 103.816C189.51 107.363 192.301 110.18 195.836 111.399C196.866 111.756 197.962 111.983 199.098 112.044V114.913C197.771 114.853 196.493 114.622 195.28 114.237C190.427 112.705 186.641 108.757 185.33 103.816C185.006 102.596 184.835 101.315 184.835 99.9982C184.835 91.7665 191.539 85.0708 199.784 85.0708Z" fill="#3662C1"/>
<path d="M195.162 113.376C195.162 113.676 195.203 113.964 195.28 114.24C195.657 115.61 196.907 116.611 198.4 116.611C200.186 116.611 201.638 115.164 201.638 113.376C201.638 111.589 200.19 110.142 198.4 110.142C197.354 110.142 196.428 110.637 195.836 111.403C195.414 111.946 195.162 112.631 195.162 113.376Z" fill="#3662C1"/>
<path d="M146.186 85.0708C154.431 85.0708 161.134 91.7665 161.134 99.9982H158.265C158.265 93.3471 152.848 87.9323 146.186 87.9323C139.523 87.9323 134.106 93.3431 134.106 99.9982C134.106 101.336 134.325 102.616 134.727 103.816C135.912 107.363 138.703 110.18 142.238 111.399C143.268 111.756 144.36 111.983 145.5 112.044V114.913C144.173 114.853 142.895 114.622 141.682 114.237C136.833 112.705 133.043 108.757 131.736 103.816C131.412 102.596 131.241 101.315 131.241 99.9982C131.237 91.7665 137.944 85.0708 146.186 85.0708Z" fill="#3662C1"/>
<path d="M141.564 113.376C141.564 113.676 141.605 113.964 141.682 114.24C142.059 115.61 143.313 116.611 144.802 116.611C146.587 116.611 148.04 115.164 148.04 113.376C148.04 111.589 146.591 110.142 144.802 110.142C143.759 110.142 142.834 110.637 142.238 111.403C141.811 111.946 141.564 112.631 141.564 113.376Z" fill="#3662C1"/>
<path d="M92.5876 85.0708C100.833 85.0708 107.536 91.7665 107.536 99.9982H104.667C104.667 93.3471 99.2504 87.9323 92.5876 87.9323C85.9289 87.9323 80.5078 93.3431 80.5078 99.9982C80.5078 101.336 80.7269 102.616 81.1286 103.816C82.3135 107.363 85.1052 110.18 88.6394 111.399C89.6701 111.756 90.7616 111.983 91.9018 112.044V114.913C90.5749 114.853 89.2968 114.622 88.0835 114.237C83.2346 112.705 79.4447 108.757 78.1381 103.816C77.8134 102.596 77.643 101.315 77.643 99.9982C77.6389 91.7665 84.3464 85.0708 92.5876 85.0708Z" fill="#3662C1"/>
<path d="M87.9658 113.376C87.9658 113.676 88.0064 113.964 88.0835 114.24C88.4608 115.61 89.7147 116.611 91.2038 116.611C92.9892 116.611 94.4419 115.164 94.4419 113.376C94.4419 111.589 92.9933 110.142 91.2038 110.142C90.161 110.142 89.2359 110.637 88.6394 111.403C88.2133 111.946 87.9658 112.631 87.9658 113.376Z" fill="#3662C1"/>
<path d="M222.836 248H240.268C242.284 248 244.248 246.354 244.638 244.34L248.002 226.928C248.391 224.914 247.06 223.268 245.044 223.268H227.612C225.595 223.268 223.631 224.914 223.242 226.928L219.878 244.34C219.488 246.354 220.819 248 222.836 248Z" fill="#6D89CF"/>
<path d="M178.846 248H196.278C198.295 248 200.259 246.354 200.648 244.34L204.012 226.928C204.402 224.914 203.071 223.268 201.054 223.268H183.622C181.605 223.268 179.642 224.914 179.252 226.928L175.888 244.34C175.503 246.354 176.834 248 178.846 248Z" fill="#6D89CF"/>
<path d="M134.861 248H152.292C154.309 248 156.273 246.354 156.663 244.34L160.026 226.928C160.416 224.914 159.085 223.268 157.068 223.268H139.636C137.62 223.268 135.656 224.914 135.266 226.928L131.903 244.34C131.517 246.354 132.848 248 134.861 248Z" fill="#3662C1"/>
<path d="M354.793 248H372.225C374.241 248 376.205 246.354 376.595 244.34L379.959 226.928C380.348 224.914 379.017 223.268 377 223.268H359.569C357.552 223.268 355.588 224.914 355.198 226.928L351.835 244.34C351.449 246.354 352.78 248 354.793 248Z" fill="#6D89CF"/>
<path d="M373.896 195.728H381.387C382.251 195.728 383.099 195.019 383.265 194.156L384.71 186.674C384.876 185.81 384.304 185.101 383.44 185.101H375.949C375.085 185.101 374.237 185.81 374.071 186.674L372.626 194.156C372.46 195.019 373.032 195.728 373.896 195.728Z" fill="#3793D8"/>
<path d="M310.807 248H328.239C330.255 248 332.219 246.354 332.609 244.34L335.973 226.928C336.362 224.914 335.031 223.268 333.015 223.268H315.583C313.566 223.268 311.602 224.914 311.213 226.928L307.849 244.34C307.459 246.354 308.79 248 310.807 248Z" fill="#6D89CF"/>
<path d="M266.821 248H284.253C286.27 248 288.234 246.354 288.623 244.34L291.987 226.928C292.377 224.914 291.046 223.268 289.029 223.268H271.597C269.581 223.268 267.617 224.914 267.227 226.928L263.863 244.34C263.474 246.354 264.805 248 266.821 248Z" fill="#6D89CF"/>
<path d="M90.8751 248H108.307C110.324 248 112.288 246.354 112.677 244.34L116.041 226.928C116.431 224.914 115.1 223.268 113.083 223.268H95.651C93.6343 223.268 91.6704 224.914 91.2809 226.928L87.917 244.34C87.5315 246.354 88.8625 248 90.8751 248Z" fill="#3662C1"/>
<path d="M230.136 210.186H247.568C249.58 210.186 251.548 208.54 251.938 206.526L255.302 189.114C255.691 187.1 254.36 185.454 252.344 185.454H234.912C232.895 185.454 230.931 187.1 230.541 189.114L227.178 206.526C226.792 208.54 228.123 210.186 230.136 210.186Z" fill="#6D89CF"/>
<path d="M186.15 210.186H203.582C205.598 210.186 207.562 208.54 207.952 206.526L211.316 189.114C211.705 187.1 210.374 185.454 208.358 185.454H190.926C188.909 185.454 186.945 187.1 186.555 189.114L183.192 206.526C182.806 208.54 184.137 210.186 186.15 210.186Z" fill="#6D89CF"/>
<path d="M142.165 210.186H159.596C161.613 210.186 163.577 208.54 163.967 206.526L167.33 189.114C167.72 187.1 166.389 185.454 164.372 185.454H146.94C144.924 185.454 142.96 187.1 142.57 189.114L139.207 206.526C138.821 208.54 140.148 210.186 142.165 210.186Z" fill="#3662C1"/>
<path d="M98.1787 210.186H115.611C117.627 210.186 119.591 208.54 119.981 206.526L123.345 189.114C123.734 187.1 122.403 185.454 120.387 185.454H102.955C100.942 185.454 98.974 187.1 98.5845 189.114L95.2206 206.526C94.8311 208.54 96.162 210.186 98.1787 210.186Z" fill="#3662C1"/>
<path d="M215.094 288.081H232.526C234.542 288.081 236.506 286.435 236.896 284.421L240.259 267.009C240.649 264.995 239.318 263.349 237.301 263.349H219.87C217.853 263.349 215.889 264.995 215.499 267.009L212.136 284.421C211.75 286.435 213.081 288.081 215.094 288.081Z" fill="#6D89CF"/>
<path d="M171.108 288.081H188.54C190.557 288.081 192.521 286.435 192.91 284.421L196.274 267.009C196.664 264.995 195.333 263.349 193.316 263.349H175.884C173.867 263.349 171.903 264.995 171.514 267.009L168.15 284.421C167.761 286.435 169.091 288.081 171.108 288.081Z" fill="#6D89CF"/>
<path d="M127.122 288.081H144.554C146.567 288.081 148.535 286.435 148.924 284.421L152.288 267.009C152.678 264.995 151.347 263.349 149.33 263.349H131.898C129.886 263.349 127.918 264.995 127.528 267.009L124.164 284.421C123.775 286.435 125.106 288.081 127.122 288.081Z" fill="#3662C1"/>
<path d="M347.054 288.081H364.486C366.503 288.081 368.467 286.435 368.856 284.421L372.22 267.009C372.61 264.995 371.279 263.349 369.262 263.349H351.83C349.814 263.349 347.85 264.995 347.46 267.009L344.096 284.421C343.707 286.435 345.038 288.081 347.054 288.081Z" fill="#6D89CF"/>
<path d="M303.065 288.081H320.497C322.513 288.081 324.477 286.435 324.867 284.421L328.231 267.009C328.62 264.995 327.289 263.349 325.273 263.349H307.841C305.828 263.349 303.86 264.995 303.471 267.009L300.107 284.421C299.721 286.435 301.052 288.081 303.065 288.081Z" fill="#6D89CF"/>
<path d="M259.079 288.081H276.511C278.528 288.081 280.492 286.435 280.881 284.421L284.245 267.009C284.635 264.995 283.304 263.349 281.287 263.349H263.855C261.838 263.349 259.874 264.995 259.485 267.009L256.121 284.421C255.736 286.435 257.066 288.081 259.079 288.081Z" fill="#6D89CF"/>
<path d="M83.1369 288.081H100.569C102.585 288.081 104.549 286.435 104.939 284.421L108.303 267.009C108.692 264.995 107.361 263.349 105.345 263.349H87.9128C85.8961 263.349 83.9322 264.995 83.5426 267.009L80.1788 284.421C79.7892 286.435 81.1202 288.081 83.1369 288.081Z" fill="#3662C1"/>
<path d="M207.351 328.162H224.783C226.8 328.162 228.764 326.517 229.154 324.503L232.517 307.091C232.907 305.08 231.576 303.431 229.559 303.431H212.127C210.111 303.431 208.147 305.076 207.757 307.091L204.393 324.503C204.008 326.517 205.339 328.162 207.351 328.162Z" fill="#6D89CF"/>
<path d="M163.366 328.162H180.798C182.815 328.162 184.779 326.517 185.168 324.503L188.532 307.091C188.921 305.08 187.591 303.431 185.574 303.431H168.142C166.125 303.431 164.161 305.076 163.772 307.091L160.408 324.503C160.022 326.517 161.353 328.162 163.366 328.162Z" fill="#6D89CF"/>
<path d="M119.38 328.162H136.812C138.829 328.162 140.793 326.517 141.182 324.503L144.546 307.091C144.936 305.08 143.605 303.431 141.588 303.431H124.156C122.14 303.431 120.176 305.076 119.786 307.091L116.422 324.503C116.037 326.517 117.368 328.162 119.38 328.162Z" fill="#3662C1"/>
<path d="M339.312 328.162H356.744C358.761 328.162 360.725 326.517 361.114 324.503L364.478 307.091C364.868 305.08 363.537 303.431 361.52 303.431H344.088C342.072 303.431 340.108 305.076 339.718 307.091L336.354 324.503C335.965 326.517 337.296 328.162 339.312 328.162Z" fill="#6D89CF"/>
<path d="M295.327 328.162H312.759C314.775 328.162 316.739 326.517 317.129 324.503L320.493 307.091C320.882 305.08 319.551 303.431 317.535 303.431H300.103C298.086 303.431 296.122 305.076 295.733 307.091L292.369 324.503C291.979 326.517 293.31 328.162 295.327 328.162Z" fill="#3793D8"/>
<path d="M251.341 328.162H268.773C270.79 328.162 272.754 326.517 273.143 324.503L276.507 307.091C276.897 305.08 275.566 303.431 273.549 303.431H256.117C254.101 303.431 252.137 305.076 251.747 307.091L248.383 324.503C247.994 326.517 249.325 328.162 251.341 328.162Z" fill="#6D89CF"/>
<path d="M75.3948 328.162H92.8267C94.8434 328.162 96.8073 326.517 97.1968 324.503L100.561 307.091C100.95 305.08 99.6193 303.431 97.6026 303.431H80.1707C78.1541 303.431 76.1901 305.076 75.8006 307.091L72.4367 324.503C72.0472 326.517 73.3781 328.162 75.3948 328.162Z" fill="#3662C1"/>
<path d="M200.052 365.982H217.484C219.5 365.982 221.464 364.336 221.854 362.322L225.218 344.91C225.607 342.896 224.276 341.25 222.26 341.25H204.828C202.811 341.25 200.847 342.896 200.457 344.91L197.094 362.322C196.704 364.332 198.035 365.982 200.052 365.982Z" fill="#6D89CF"/>
<path d="M156.066 365.982H173.498C175.515 365.982 177.479 364.336 177.868 362.322L181.232 344.91C181.622 342.896 180.291 341.25 178.274 341.25H160.842C158.83 341.25 156.862 342.896 156.472 344.91L153.108 362.322C152.719 364.332 154.05 365.982 156.066 365.982Z" fill="#6D89CF"/>
<path d="M112.076 365.982H129.508C131.525 365.982 133.489 364.336 133.879 362.322L137.242 344.91C137.632 342.896 136.301 341.25 134.284 341.25H116.852C114.836 341.25 112.872 342.896 112.482 344.91L109.118 362.322C108.733 364.332 110.064 365.982 112.076 365.982Z" fill="#3662C1"/>
<path d="M332.009 365.982H349.441C351.457 365.982 353.421 364.336 353.811 362.322L357.175 344.91C357.564 342.896 356.233 341.25 354.216 341.25H336.785C334.768 341.25 332.804 342.896 332.414 344.91L329.05 362.322C328.665 364.332 329.996 365.982 332.009 365.982Z" fill="#6D89CF"/>
<path d="M288.023 365.982H305.455C307.471 365.982 309.435 364.336 309.825 362.322L313.189 344.91C313.578 342.896 312.247 341.25 310.231 341.25H292.799C290.782 341.25 288.818 342.896 288.429 344.91L285.065 362.322C284.679 364.332 286.006 365.982 288.023 365.982Z" fill="#6D89CF"/>
<path d="M244.037 365.982H261.469C263.486 365.982 265.45 364.336 265.839 362.322L269.203 344.91C269.593 342.896 268.262 341.25 266.245 341.25H248.813C246.797 341.25 244.833 342.896 244.443 344.91L241.079 362.322C240.69 364.332 242.021 365.982 244.037 365.982Z" fill="#6D89CF"/>
<path d="M321.065 188.858H367.246C367.927 188.858 368.483 188.303 368.483 187.622C368.483 186.941 367.927 186.386 367.246 186.386H321.065C320.383 186.386 319.827 186.941 319.827 187.622C319.827 188.303 320.383 188.858 321.065 188.858Z" fill="#6D89CF"/>
<path d="M319.661 194.444H365.842C366.523 194.444 367.079 193.889 367.079 193.208C367.079 192.527 366.523 191.972 365.842 191.972H319.661C318.979 191.972 318.423 192.527 318.423 193.208C318.423 193.889 318.979 194.444 319.661 194.444Z" fill="#6D89CF"/>
<path d="M370.593 147.258H386.439C387.737 147.258 388.8 146.196 388.8 144.899C388.8 143.602 387.737 142.541 386.439 142.541H370.593C369.295 142.541 368.232 143.602 368.232 144.899C368.232 146.196 369.295 147.258 370.593 147.258Z" fill="white"/>
<path d="M327.111 147.257H342.956C344.255 147.257 345.318 146.195 345.318 144.898C345.318 143.601 344.255 142.54 342.956 142.54H327.111C325.812 142.54 324.749 143.601 324.749 144.898C324.749 146.195 325.812 147.257 327.111 147.257Z" fill="white"/>
<path d="M283.624 147.257H299.47C300.768 147.257 301.831 146.195 301.831 144.898C301.831 143.601 300.768 142.54 299.47 142.54H283.624C282.326 142.54 281.263 143.601 281.263 144.898C281.267 146.195 282.33 147.257 283.624 147.257Z" fill="white"/>
<path d="M240.142 147.257H255.987C257.286 147.257 258.349 146.195 258.349 144.898C258.349 143.601 257.286 142.54 255.987 142.54H240.142C238.843 142.54 237.78 143.601 237.78 144.898C237.784 146.195 238.843 147.257 240.142 147.257Z" fill="white"/>
<path d="M196.66 147.257H212.505C213.803 147.257 214.866 146.195 214.866 144.898C214.866 143.601 213.803 142.54 212.505 142.54H196.66C195.361 142.54 194.298 143.601 194.298 144.898C194.298 146.195 195.361 147.257 196.66 147.257Z" fill="white"/>
<path d="M153.177 147.257H169.023C170.321 147.257 171.384 146.195 171.384 144.898C171.384 143.601 170.321 142.54 169.023 142.54H153.177C151.879 142.54 150.816 143.601 150.816 144.898C150.816 146.195 151.879 147.257 153.177 147.257Z" fill="white"/>
<path d="M109.691 147.257H125.536C126.835 147.257 127.898 146.195 127.898 144.898C127.898 143.601 126.835 142.54 125.536 142.54H109.691C108.392 142.54 107.329 143.601 107.329 144.898C107.333 146.195 108.392 147.257 109.691 147.257Z" fill="white"/>
<path d="M209.92 210.529C213.418 210.529 215.966 209.419 217.358 207.266C220.02 203.136 217.967 197.349 211.247 190.065C206.341 184.744 200.612 180.528 200.555 180.488C200.332 180.322 200.015 180.37 199.849 180.597C199.682 180.82 199.731 181.136 199.958 181.303C200.182 181.469 222.264 197.798 216.51 206.723C214.688 209.552 210.784 209.739 207.826 209.394C202.357 208.762 195.223 205.819 188.743 201.523C182.04 197.077 177.316 192.063 175.783 187.767C174.78 184.95 175.089 182.956 176.708 181.838C178.797 180.395 183.159 180.391 188.382 181.833C193.381 183.216 198.412 185.7 201.517 188.322C201.728 188.501 202.048 188.476 202.231 188.262C202.413 188.047 202.385 187.731 202.17 187.548C198.964 184.841 193.787 182.275 188.654 180.857C183.066 179.312 178.501 179.365 176.136 181.003C174.732 181.971 173.368 183.99 174.833 188.099C176.436 192.594 181.301 197.79 188.183 202.358C194.789 206.739 202.089 209.743 207.709 210.391C208.48 210.485 209.218 210.529 209.92 210.529Z" fill="#3793D8"/>
<path d="M118.419 181.825L120.216 178.437C120.216 178.437 119.323 172.398 126.903 168.576C126.903 168.576 129.675 167.449 131.237 169.706C132.677 171.786 128.494 171.409 128.717 174.963C128.94 178.518 127.252 180.605 124.899 181.764L122.955 184.014L118.419 181.825Z" fill="#FC9290"/>
<path d="M46.8041 173.72C46.8041 173.72 53.3127 205.626 89.122 216.046C100.301 219.301 125.698 182.539 125.698 182.539C125.698 182.539 124.806 179.151 119.21 179.929C119.21 179.929 94.4823 196.279 91.37 198.059C88.6067 199.635 70.4403 177.797 62.1586 174.275C53.8768 170.753 46.8041 173.72 46.8041 173.72Z" fill="#060632"/>
<path d="M151.504 173.143L150.069 180.883L111.088 173.672L112.523 165.932L151.504 173.143Z" fill="#3793D8"/>
<path d="M159.86 178.697L150.081 180.89L151.517 173.148L159.86 178.697Z" fill="#FC9290"/>
<path d="M107.528 167.668L107.073 170.117C106.793 171.62 107.792 173.067 109.297 173.347L111.098 173.679L112.535 165.938L110.575 165.577C109.155 165.314 107.792 166.25 107.528 167.668Z" fill="#FC9290"/>
<path d="M4.04807 374.278C4.04807 374.278 -0.395096 378.327 0.473253 381.204C1.3416 384.082 5.3506 385.999 5.89028 389.517C6.42995 393.035 8.60082 394.952 10.5485 394.952C12.4962 394.952 19.8488 394.952 19.8488 394.952C19.8488 394.952 21.2852 392.476 17.8159 391.73C14.3465 390.984 13.04 386.85 13.2591 383.016C13.4782 379.178 12.9344 374.063 12.9344 374.063L5.56564 372.356L4.04807 374.278Z" fill="#060632"/>
<path d="M58.551 384.756C58.551 384.756 57.7516 393.972 59.7034 394.933L84.6624 394.88C84.6624 394.88 84.6624 392.003 80.6533 391.362C76.6443 390.722 69.6002 388.379 68.4072 383.155C67.2183 377.934 58.551 384.756 58.551 384.756Z" fill="#060632"/>
<path d="M79.627 254.566C79.627 254.566 78.3123 270.722 76.7623 290.14C74.6604 316.521 72.1284 348.922 71.8809 355.062C71.4467 365.722 69.7141 382.773 69.7141 382.773C69.7141 382.773 65.5995 386.822 57.3624 385.115C57.3624 385.115 50.022 360.777 47.9241 335.024C47.8917 334.602 47.8592 334.177 47.8268 333.751C45.875 307.536 42.8439 252.329 42.8439 252.329L79.627 254.566Z" fill="#3793D8"/>
<path d="M79.627 254.566C79.627 254.566 78.3123 270.722 76.7623 290.14L47.9201 335.024C47.8876 334.602 47.8552 334.177 47.8227 333.751C45.8709 307.536 42.8399 252.329 42.8399 252.329L79.627 254.566Z" fill="#3793D8"/>
<path d="M73.6135 256.484C73.6135 256.484 49.884 314.994 34.2821 342.489C18.6761 369.985 13.8028 377.658 13.8028 377.658C13.8028 377.658 4.86366 374.14 4.05212 371.744C4.05212 371.744 10.021 318.662 20.4696 305.724C26.3736 298.412 33.3082 276.469 33.6369 268.797C33.9615 261.124 35.7509 245.938 35.7509 245.938L73.6135 256.484Z" fill="#3793D8"/>
<path d="M42.3892 166.319C42.3892 166.319 58.4455 174.056 67.7012 171.186C67.7012 171.186 65.4208 168.317 61.4361 166.181C61.7567 164.324 62.0042 162.715 62.1462 161.349C62.5398 158.196 62.5398 156.413 62.5398 156.413L56.3437 151.545L50.4681 146.888C50.9347 159.98 42.3892 166.319 42.3892 166.319Z" fill="#FC9290"/>
<path d="M80.6373 255.9C80.3533 256.147 80.0327 256.285 79.6716 256.285C76.182 256.216 66.0377 258.141 57.4597 257.266C50.1964 256.565 43.7893 254.465 36.9155 251.458C35.9904 251.036 33.8885 249.918 33.925 248.937C33.9615 247.814 34.0671 246.241 34.2091 244.207C34.4972 240.206 34.903 234.528 35.0328 227.792C35.1302 222.799 35.0734 217.23 34.7122 211.328C34.692 210.931 34.6717 210.534 34.6554 210.133C34.5499 207.968 34.5012 205.792 34.5012 203.66C34.4647 196.798 34.9597 190.248 35.9579 184.404C37.7068 174.247 40.9814 166.303 45.8182 162.765C46.4593 162.274 50.448 164.199 54.1487 165.987C57.5328 167.632 60.9128 167.807 64.1144 167.178L67.3199 169.979C71.2032 173.513 75.4759 178.381 77.3628 185.733C78.929 191.967 79.8542 203.238 80.3533 214.936C80.6008 220.257 80.7793 225.579 80.8483 230.653V230.828C80.8848 231.35 80.8849 231.881 80.8849 232.408C81.0634 245.394 80.8889 255.726 80.6373 255.9Z" fill="#0B0754"/>
<path d="M50.3668 151.89C50.3668 151.89 54.4245 159.278 62.1504 161.345C62.544 158.192 62.5439 156.409 62.5439 156.409L56.3478 151.541L50.3668 151.89Z" fill="#EA8888"/>
<path d="M65.368 156.194C65.368 156.194 50.0502 158.695 48.6137 149.292C47.1773 139.885 44.2314 133.874 53.9496 131.88C63.6679 129.886 66.1228 133.193 67.3766 136.217C68.6304 139.24 69.3121 155.303 65.368 156.194Z" fill="#FC9290"/>
<path d="M43.0426 130.753C42.9047 130.595 42.5841 130.466 41.8699 130.425C41.8699 130.425 42.442 130.068 43.2049 130.048C43.355 129.055 43.8825 127.3 45.5908 126.875C45.5908 126.875 44.6738 127.365 44.5521 128.419C46.5322 126.388 50.7685 124.913 62.5075 125.837C77.9796 127.057 72.879 136.95 70.8745 138.13C68.87 139.309 63.8303 136.075 60.0972 136.371C56.3641 136.667 55.654 142.053 54.388 142.791C53.122 143.529 53.6211 142.224 51.9087 141.449C50.1964 140.675 50.034 143.512 50.5291 145.352C51.0241 147.197 48.6707 149.628 48.6707 149.628C48.6707 149.628 48.6707 149.628 46.2929 147.071C43.915 144.514 41.6711 133.676 42.7545 131.365C42.8519 131.167 42.9452 130.96 43.0426 130.753Z" fill="#0B0B36"/>
<path d="M120.249 178.276C120.249 178.276 119.721 176.196 121.166 175.26C122.61 174.324 123.937 171.783 124.546 172.127C125.808 172.84 123.856 175.057 124.213 177.826C124.339 178.794 122.083 181.336 120.249 178.276Z" fill="#FC9290"/>
<path d="M35.0366 227.787C35.134 222.794 35.0773 217.225 34.7161 211.324C34.6958 210.926 34.6755 210.529 34.6593 210.128C36.116 202.922 38.3194 196.53 41.5575 196.323C41.5575 196.319 51.2149 211.482 35.0366 227.787Z" fill="#060632"/>
<path d="M22.259 253.93C22.259 253.93 23.0625 261.748 23.947 263.228C24.8316 264.707 28.5931 269.433 30.1918 270.357C31.7946 271.285 29.2139 264.131 29.5386 262.737C29.8672 261.347 30.8573 265.278 31.5633 265.372C32.2694 265.465 32.0868 261.927 32.1152 260.638C32.1395 259.349 28.6783 256.171 27.461 253.427C26.2396 250.683 22.259 253.93 22.259 253.93Z" fill="#FC9290"/>
<path d="M45.8262 162.679C45.8262 162.679 36.1363 167.263 31.4862 174.311C24.2797 185.242 15.9249 225.08 15.7707 228.768C15.6165 232.456 21.8694 258.501 21.8694 258.501C21.8694 258.501 28.2116 258.084 29.8469 254.886C29.8469 254.886 28.5809 228.128 29.3843 226.405C30.1877 224.686 55.8203 190.507 52.9393 183.216C50.0543 175.924 45.8262 162.679 45.8262 162.679Z" fill="#0B0754"/>
<path d="M154.849 175.366L154.341 179.934L159.86 178.697L154.849 175.366Z" fill="#3793D8"/>
<path d="M1.22571 396.859H493.04C493.443 396.859 493.775 396.208 493.775 395.408C493.775 394.613 493.445 393.957 493.581 393.957H1.76675C0.822632 393.957 0.489838 394.608 0.489838 395.408C0.492554 396.208 0.822632 396.859 1.22571 396.859Z" fill="#060632"/>
<circle cx="324.004" cy="57.5442" r="4.3293" transform="rotate(-90 324.004 57.5442)" fill="#EEAA2B"/>
<circle cx="324.004" cy="22.91" r="4.3293" transform="rotate(-90 324.004 22.91)" fill="#EEAA2B"/>
<circle cx="324.004" cy="40.2273" r="4.3293" transform="rotate(-90 324.004 40.2273)" fill="#EEAA2B"/>
<circle cx="324.004" cy="5.59307" r="4.3293" transform="rotate(-90 324.004 5.59307)" fill="#EEAA2B"/>
<circle cx="375.955" cy="57.5442" r="4.3293" transform="rotate(-90 375.955 57.5442)" fill="#EEAA2B"/>
<circle cx="375.955" cy="22.91" r="4.3293" transform="rotate(-90 375.955 22.91)" fill="#EEAA2B"/>
<circle cx="375.955" cy="40.2273" r="4.3293" transform="rotate(-90 375.955 40.2273)" fill="#EEAA2B"/>
<circle cx="375.955" cy="5.59307" r="4.3293" transform="rotate(-90 375.955 5.59307)" fill="#EEAA2B"/>
<circle cx="341.321" cy="57.5442" r="4.3293" transform="rotate(-90 341.321 57.5442)" fill="#EEAA2B"/>
<circle cx="341.321" cy="22.91" r="4.3293" transform="rotate(-90 341.321 22.91)" fill="#EEAA2B"/>
<circle cx="341.321" cy="40.2273" r="4.3293" transform="rotate(-90 341.321 40.2273)" fill="#EEAA2B"/>
<circle cx="341.321" cy="5.59307" r="4.3293" transform="rotate(-90 341.321 5.59307)" fill="#EEAA2B"/>
<circle cx="393.273" cy="57.5442" r="4.3293" transform="rotate(-90 393.273 57.5442)" fill="#EEAA2B"/>
<circle cx="393.273" cy="22.91" r="4.3293" transform="rotate(-90 393.273 22.91)" fill="#EEAA2B"/>
<circle cx="393.273" cy="40.2273" r="4.3293" transform="rotate(-90 393.273 40.2273)" fill="#EEAA2B"/>
<circle cx="393.273" cy="5.59307" r="4.3293" transform="rotate(-90 393.273 5.59307)" fill="#EEAA2B"/>
<circle cx="358.638" cy="57.5442" r="4.3293" transform="rotate(-90 358.638 57.5442)" fill="#EEAA2B"/>
<circle cx="358.638" cy="22.91" r="4.3293" transform="rotate(-90 358.638 22.91)" fill="#EEAA2B"/>
<circle cx="358.638" cy="40.2273" r="4.3293" transform="rotate(-90 358.638 40.2273)" fill="#EEAA2B"/>
<circle cx="358.638" cy="5.59307" r="4.3293" transform="rotate(-90 358.638 5.59307)" fill="#EEAA2B"/>
<circle cx="410.59" cy="57.5442" r="4.3293" transform="rotate(-90 410.59 57.5442)" fill="#EEAA2B"/>
<circle cx="410.59" cy="22.91" r="4.3293" transform="rotate(-90 410.59 22.91)" fill="#EEAA2B"/>
<circle cx="410.59" cy="40.2273" r="4.3293" transform="rotate(-90 410.59 40.2273)" fill="#EEAA2B"/>
<circle cx="410.59" cy="5.59307" r="4.3293" transform="rotate(-90 410.59 5.59307)" fill="#EEAA2B"/>
</svg>
