<svg width="17" height="17" viewBox="0 0 17 17" fill="none" xmlns="http://www.w3.org/2000/svg">
<path d="M16.2133 5.8362L11.1905 5.10623L8.94521 0.554284C8.88388 0.429654 8.78299 0.328764 8.65836 0.267438C8.3458 0.113135 7.96597 0.241721 7.80969 0.554284L5.56438 5.10623L0.541613 5.8362C0.403136 5.85599 0.276528 5.92127 0.179594 6.02018C0.062406 6.14063 -0.00216996 6.30268 5.56796e-05 6.47071C0.00228131 6.63875 0.0711264 6.79902 0.191463 6.91633L3.8255 10.4594L2.96694 15.4624C2.94681 15.5787 2.95969 15.6984 3.00412 15.8079C3.04855 15.9173 3.12275 16.0121 3.21832 16.0815C3.31388 16.1509 3.42698 16.1921 3.54479 16.2005C3.6626 16.2089 3.78041 16.1842 3.88485 16.129L8.37745 13.767L12.87 16.129C12.9927 16.1943 13.1351 16.2161 13.2716 16.1923C13.6158 16.133 13.8473 15.8066 13.788 15.4624L12.9294 10.4594L16.5634 6.91633C16.6623 6.81939 16.7276 6.69278 16.7474 6.55431C16.8008 6.20811 16.5595 5.88764 16.2133 5.8362Z" fill="#EEAA2B"/>
</svg>
